<svg width="17" height="14" viewBox="0 0 17 14" fill="none" xmlns="http://www.w3.org/2000/svg">
<path d="M14.3125 7.1875V12.8125H2.6875V7.1875H14.3125Z" stroke="#7F4C2F" stroke-width="0.375"/>
<path d="M14.5 13H2.5M14.5 13H1H2.5M14.5 13H16M14.5 13V7H2.5V13" stroke="#7F4C2F" stroke-width="0.75" stroke-linecap="round" stroke-linejoin="round"/>
<path d="M14.5 10.75L13 10L11.5 10.75L10 10L8.5 10.75L7 10L5.5 10.75L4 10L2.5 10.75M11.5 7V3.625M8.5 7V3.625M5.5 7V3.625M11.5 1.75V1M8.5 1.75V1M5.5 1.75V1M2.5 7V13M14.5 7V13" stroke="#7F4C2F" stroke-width="0.75" stroke-linecap="round" stroke-linejoin="round"/>
</svg>
