<svg viewBox="0 0 32 20" fill="none" xmlns="http://www.w3.org/2000/svg">
<path d="M31.2108 0.839695C30.6846 0.279898 30.0149 1.312e-06 29.2018 1.27645e-06C28.3886 1.24091e-06 27.719 0.279898 27.1928 0.839695L16 12.7481L4.80718 0.839694C4.28102 0.279897 3.61136 1.57858e-07 2.79821 1.22313e-07C1.98505 8.67694e-08 1.31539 0.279897 0.789237 0.839694C0.263078 1.39949 -9.23166e-08 2.11196 -1.30133e-07 2.9771C-1.6795e-07 3.84224 0.263078 4.55471 0.789236 5.1145L13.991 19.1603C14.278 19.4656 14.5889 19.6824 14.9238 19.8107C15.2586 19.9369 15.6173 20 16 20C16.3827 20 16.7414 19.9369 17.0762 19.8107C17.4111 19.6824 17.722 19.4656 18.009 19.1603L31.2108 5.11451C31.7369 4.55471 32 3.84224 32 2.9771C32 2.11196 31.7369 1.39949 31.2108 0.839695Z" fill="currentColor"/>
</svg>
