<svg viewBox="0 0 16 16" fill="none" xmlns="http://www.w3.org/2000/svg">
<path d="M5.11944 11.5594C3.66437 11.3737 2.44717 10.7398 1.46784 9.65755C0.489279 8.57611 0 7.29084 0 5.80173C0 4.19503 0.565475 2.8266 1.69642 1.69642C2.82737 0.566248 4.19581 0.000773564 5.80173 0C7.29084 0 8.57611 0.485797 9.65755 1.45739C10.739 2.42822 11.3729 3.64116 11.5594 5.09624L10.305 4.72841C10.0536 3.6841 9.51599 2.82853 8.69215 2.16172C7.86753 1.49414 6.90405 1.16035 5.80173 1.16035C4.52535 1.16035 3.43269 1.61481 2.52375 2.52375C1.61481 3.43269 1.16035 4.52535 1.16035 5.80173C1.16035 6.90405 1.49762 7.87101 2.17217 8.70259C2.84671 9.53417 3.69879 10.0757 4.72841 10.3271L5.11944 11.5594ZM14.8014 16L9.23867 10.4141L8.16767 13.6561L5.80173 5.80173L13.6573 8.16767L10.4141 9.23867L16 14.8014L14.8014 16Z" fill="currentColor"/>
</svg>
