<svg width="13" height="13" viewBox="0 0 13 13" fill="none" xmlns="http://www.w3.org/2000/svg">
<path d="M5.87562 10.1005L10.4981 5.47795C9.72049 5.15309 9.01422 4.6787 8.41937 4.0817C7.82208 3.48673 7.34747 2.78023 7.0225 2.00233L2.4 6.62483C2.03937 6.98545 1.85875 7.16608 1.70375 7.36483C1.52087 7.5995 1.36391 7.85327 1.23562 8.1217C1.1275 8.3492 1.04687 8.5917 0.885622 9.07545L0.0343722 11.6273C-0.00480672 11.7442 -0.0106195 11.8696 0.0175871 11.9896C0.0457937 12.1095 0.106902 12.2193 0.194042 12.3064C0.281182 12.3935 0.390901 12.4547 0.510864 12.4829C0.630828 12.5111 0.756281 12.5053 0.873122 12.4661L3.425 11.6148C3.90937 11.4536 4.15125 11.373 4.37875 11.2648C4.64833 11.1365 4.90062 10.9805 5.13562 10.7967C5.33437 10.6417 5.515 10.4611 5.87562 10.1005ZM11.7806 4.19545C12.2415 3.73455 12.5004 3.10944 12.5004 2.45764C12.5004 1.80583 12.2415 1.18072 11.7806 0.719826C11.3197 0.258929 10.6946 4.85633e-09 10.0428 0C9.391 -4.85633e-09 8.76589 0.258929 8.305 0.719826L7.75062 1.2742L7.77437 1.34358C8.04749 2.12531 8.49456 2.83482 9.08187 3.41858C9.68308 4.02346 10.4174 4.47935 11.2262 4.74983L11.7806 4.19545Z" fill="#7F4C2F"/>
</svg>
