<svg viewBox="0 0 26 27" fill="none" xmlns="http://www.w3.org/2000/svg">
<path d="M12.5293 0.411133C19.2038 0.411133 24.6484 6.09478 24.6484 13.1484C24.6484 20.2021 19.2038 25.8857 12.5293 25.8857C5.8549 25.8856 0.411133 20.202 0.411133 13.1484C0.411173 6.0949 5.85492 0.411315 12.5293 0.411133Z" stroke="currentColor" stroke-width="0.821782"/>
<path fill-rule="evenodd" clip-rule="evenodd" d="M12.2783 7.36849C12.3405 7.25637 12.4297 7.16334 12.5369 7.09868C12.6441 7.03403 12.7656 7 12.8893 7C13.013 7 13.1345 7.03403 13.2417 7.09868C13.3489 7.16334 13.4381 7.25637 13.5004 7.36849L15.0817 10.2172L18.1528 10.9154C18.2736 10.943 18.3854 11.0033 18.4771 11.0903C18.5687 11.1773 18.6371 11.2881 18.6753 11.4114C18.7134 11.5348 18.7201 11.6666 18.6947 11.7935C18.6692 11.9205 18.6125 12.0382 18.5302 12.1349L16.4368 14.5936L16.7536 17.8739C16.7661 18.0031 16.7461 18.1335 16.6956 18.252C16.645 18.3705 16.5658 18.473 16.4657 18.5493C16.3656 18.6256 16.2482 18.6731 16.1252 18.6869C16.0021 18.7007 15.8778 18.6804 15.7646 18.628L12.8893 17.298L10.014 18.628C9.9008 18.6804 9.77648 18.7007 9.65346 18.6869C9.53044 18.6731 9.41302 18.6256 9.31292 18.5493C9.21283 18.473 9.13357 18.3705 9.08304 18.252C9.03252 18.1335 9.01251 18.0031 9.02501 17.8739L9.34185 14.5936L7.24846 12.1355C7.16598 12.0388 7.10914 11.921 7.0836 11.794C7.05805 11.667 7.06471 11.5351 7.10291 11.4116C7.1411 11.2882 7.20949 11.1774 7.30125 11.0903C7.39301 11.0032 7.50493 10.9429 7.62583 10.9154L10.6969 10.2172L12.2783 7.36849ZM12.8893 8.6266L11.5807 10.9849C11.5312 11.0739 11.4646 11.1511 11.3851 11.2116C11.3056 11.2722 11.215 11.3146 11.119 11.3364L8.57748 11.9141L10.3099 13.9488C10.4423 14.1043 10.5062 14.311 10.4864 14.5182L10.2245 17.2333L12.6042 16.1325C12.694 16.091 12.7911 16.0695 12.8893 16.0695C12.9875 16.0695 13.0846 16.091 13.1745 16.1325L15.5541 17.2333L15.2922 14.5182C15.2822 14.4156 15.2927 14.3121 15.323 14.214C15.3533 14.116 15.4027 14.0257 15.4681 13.9488L17.2011 11.9141L14.6596 11.3364C14.5636 11.3146 14.473 11.2722 14.3935 11.2116C14.314 11.1511 14.2474 11.0739 14.198 10.9849L12.8893 8.6266Z" fill="currentColor"/>
</svg>
