<svg width="32" height="32" viewBox="0 0 32 32" fill="none" xmlns="http://www.w3.org/2000/svg">
<circle cx="16" cy="16" r="15.5" stroke="#D9D9D9"/>
<path d="M16 11.8547V10.5214M16 11.8547C14.7953 11.8547 13.603 11.9039 12.4231 12.0023C11.4178 12.0858 10.6667 12.9418 10.6667 13.9507V16.1845C12.4148 15.9658 14.1926 15.8559 16 15.8547C17.7829 15.8554 19.564 15.9655 21.3333 16.1845M16 11.8547C17.2047 11.8547 18.397 11.9039 19.5769 12.0023C20.5822 12.0858 21.3333 12.9418 21.3333 13.9507V16.1845M21.3333 16.1845C21.68 16.2278 22.0246 16.2752 22.3671 16.3267C23.3182 16.469 24 17.2992 24 18.2601V22.8547C24 23.4067 23.552 23.8547 23 23.8547H9C8.73478 23.8547 8.48043 23.7494 8.29289 23.5618C8.10536 23.3743 8 23.12 8 22.8547V18.2592C8 17.2992 8.68267 16.469 9.63289 16.3267C9.97689 16.2748 10.3215 16.2271 10.6667 16.1836M18.6667 11.8547V10.5214M13.3333 11.8547V10.5214M24 19.1881L22.6667 19.8547C22.2528 20.062 21.7962 20.1699 21.3333 20.1699C20.8704 20.1699 20.4139 20.062 20 19.8547C19.5861 19.6475 19.1296 19.5395 18.6667 19.5395C18.2038 19.5395 17.7472 19.6475 17.3333 19.8547C16.9194 20.062 16.4629 20.1699 16 20.1699C15.5371 20.1699 15.0806 20.062 14.6667 19.8547C14.2528 19.6475 13.7962 19.5395 13.3333 19.5395C12.8704 19.5395 12.4139 19.6475 12 19.8547C11.5861 20.062 11.1296 20.1699 10.6667 20.1699C10.2038 20.1699 9.74724 20.062 9.33333 19.8547L8 19.1881M16.2356 7.28585C16.2822 7.33245 16.314 7.39184 16.3269 7.45651C16.3398 7.52119 16.3332 7.58823 16.308 7.64916C16.2828 7.7101 16.2401 7.76218 16.1852 7.79883C16.1304 7.83547 16.0659 7.85503 16 7.85503C15.9341 7.85503 15.8696 7.83547 15.8148 7.79883C15.7599 7.76218 15.7172 7.7101 15.692 7.64916C15.6668 7.58823 15.6602 7.52119 15.6731 7.45651C15.686 7.39184 15.7178 7.33245 15.7644 7.28585L16 7.05029L16.2356 7.28585ZM13.5689 7.28585C13.6155 7.33245 13.6473 7.39184 13.6602 7.45651C13.6731 7.52119 13.6665 7.58823 13.6413 7.64916C13.6161 7.7101 13.5734 7.76218 13.5186 7.79883C13.4637 7.83547 13.3993 7.85503 13.3333 7.85503C13.2674 7.85503 13.2029 7.83547 13.1481 7.79883C13.0933 7.76218 13.0506 7.7101 13.0253 7.64916C13.0001 7.58823 12.9935 7.52119 13.0064 7.45651C13.0193 7.39184 13.0511 7.33245 13.0978 7.28585L13.3333 7.05029L13.5689 7.28585ZM18.9022 7.28585C18.9489 7.33245 18.9807 7.39184 18.9936 7.45651C19.0065 7.52119 18.9999 7.58823 18.9747 7.64916C18.9494 7.7101 18.9067 7.76218 18.8519 7.79883C18.7971 7.83547 18.7326 7.85503 18.6667 7.85503C18.6007 7.85503 18.5363 7.83547 18.4814 7.79883C18.4266 7.76218 18.3839 7.7101 18.3587 7.64916C18.3335 7.58823 18.3269 7.52119 18.3398 7.45651C18.3527 7.39184 18.3845 7.33245 18.4311 7.28585L18.6667 7.05029L18.9022 7.28585Z" stroke="#D9D9D9" stroke-width="0.888889" stroke-linecap="round" stroke-linejoin="round"/>
</svg>
