<svg width="32" height="32" viewBox="0 0 32 32" fill="none" xmlns="http://www.w3.org/2000/svg">
<circle cx="16" cy="16" r="15.5" stroke="#D9D9D9"/>
<path d="M23 9.49648L18.9965 9.4965V8.5C18.9965 8.22375 18.7727 8 18.4965 8C18.2203 8 17.9965 8.22375 17.9965 8.5V9.49625H13.9965V8.5C13.9965 8.22375 13.7727 8 13.4965 8C13.2203 8 12.9965 8.22375 12.9965 8.5V9.49625H9C8.44775 9.49625 8 9.944 8 10.4962V22.9963C8 23.5485 8.44775 23.9963 9 23.9963H23C23.5522 23.9963 24 23.5485 24 22.9963V10.4962C24 9.94423 23.5522 9.49648 23 9.49648ZM23 22.9963H9V10.4962H12.9965V11C12.9965 11.2762 13.2203 11.5 13.4965 11.5C13.7727 11.5 13.9965 11.2762 13.9965 11V10.4965H17.9965V11.0002C17.9965 11.2765 18.2203 11.5002 18.4965 11.5002C18.7727 11.5002 18.9965 11.2765 18.9965 11.0002V10.4965H23V22.9963ZM19.5 15.9965H20.5C20.776 15.9965 21 15.7725 21 15.4965V14.4965C21 14.2205 20.776 13.9965 20.5 13.9965H19.5C19.224 13.9965 19 14.2205 19 14.4965V15.4965C19 15.7725 19.224 15.9965 19.5 15.9965ZM19.5 19.9962H20.5C20.776 19.9962 21 19.7725 21 19.4962V18.4962C21 18.2202 20.776 17.9962 20.5 17.9962H19.5C19.224 17.9962 19 18.2202 19 18.4962V19.4962C19 19.7727 19.224 19.9962 19.5 19.9962ZM16.5 17.9962H15.5C15.224 17.9962 15 18.2202 15 18.4962V19.4962C15 19.7725 15.224 19.9962 15.5 19.9962H16.5C16.776 19.9962 17 19.7725 17 19.4962V18.4962C17 18.2205 16.776 17.9962 16.5 17.9962ZM16.5 13.9965H15.5C15.224 13.9965 15 14.2205 15 14.4965V15.4965C15 15.7725 15.224 15.9965 15.5 15.9965H16.5C16.776 15.9965 17 15.7725 17 15.4965V14.4965C17 14.2202 16.776 13.9965 16.5 13.9965ZM12.5 13.9965H11.5C11.224 13.9965 11 14.2205 11 14.4965V15.4965C11 15.7725 11.224 15.9965 11.5 15.9965H12.5C12.776 15.9965 13 15.7725 13 15.4965V14.4965C13 14.2202 12.776 13.9965 12.5 13.9965ZM12.5 17.9962H11.5C11.224 17.9962 11 18.2202 11 18.4962V19.4962C11 19.7725 11.224 19.9962 11.5 19.9962H12.5C12.776 19.9962 13 19.7725 13 19.4962V18.4962C13 18.2205 12.776 17.9962 12.5 17.9962Z" fill="#D9D9D9"/>
</svg>
