<svg width="19" height="20" viewBox="0 0 19 20" fill="none" xmlns="http://www.w3.org/2000/svg">
<path d="M9.5 1.6709C9.73632 1.6709 9.96502 1.75468 10.1455 1.90723V1.90625L17.1406 7.90137L17.1455 7.90625C17.2566 8.00014 17.346 8.1171 17.4072 8.24902C17.4684 8.3809 17.5 8.52456 17.5 8.66992V17.6699C17.5 17.9351 17.3946 18.1904 17.207 18.3779C17.0195 18.5653 16.7651 18.6699 16.5 18.6699H2.5C2.26802 18.6699 2.04413 18.59 1.86621 18.4443L1.79297 18.3779C1.60543 18.1904 1.5 17.9351 1.5 17.6699V8.66992L1.50586 8.56152C1.51372 8.48939 1.52949 8.41835 1.55273 8.34961L1.59277 8.24902C1.63873 8.14999 1.70047 8.05922 1.77539 7.98047L1.85449 7.90625L1.85938 7.90137L8.85352 1.90625L8.85449 1.90723C9.0125 1.77369 9.20745 1.69286 9.41211 1.6748L9.5 1.6709Z" stroke="#303030" stroke-opacity="0.5" stroke-width="2" stroke-linecap="round" stroke-linejoin="round"/>
</svg>
