<svg width="47" height="40" viewBox="0 0 47 40" fill="none" xmlns="http://www.w3.org/2000/svg">
<path fill-rule="evenodd" clip-rule="evenodd" d="M3.36983 1H43.6569C44.9657 1 46.0267 2.06101 46.0267 3.36983V36.5474C46.0267 37.8562 44.9657 38.9172 43.6569 38.9172H3.36983C2.06101 38.9172 1 37.8562 1 36.5474V3.36983C1 2.06101 2.06101 1 3.36983 1Z" stroke="currentColor" stroke-width="1.36561" stroke-linecap="round" stroke-linejoin="round"/>
<path d="M12.2564 12.8501C13.238 12.8501 14.0337 12.0544 14.0337 11.0728C14.0337 10.0912 13.238 9.29541 12.2564 9.29541C11.2748 9.29541 10.479 10.0912 10.479 11.0728C10.479 12.0544 11.2748 12.8501 12.2564 12.8501Z" stroke="currentColor" stroke-width="1.02421" stroke-linecap="round" stroke-linejoin="round"/>
<path d="M12.8491 19.9576L18.7737 24.6972L25.8832 16.4028L46.0267 31.8067V36.5464C46.0267 37.8552 44.9657 38.9162 43.6569 38.9162H3.36983C2.06101 38.9162 1 37.8552 1 36.5464V31.8067L12.8491 19.9576Z" fill="transparent" fill-opacity="0.2" stroke="currentColor" stroke-width="1.36561" stroke-linejoin="round"/>
</svg>
