<svg viewBox="0 0 15 15" fill="none" xmlns="http://www.w3.org/2000/svg">
<path d="M5.15625 6.5625C6.96562 6.5625 8.4375 8.03438 8.4375 9.84375C8.4375 11.6531 6.96562 13.125 5.15625 13.125C3.34687 13.125 1.875 11.6531 1.875 9.84375C1.875 8.03438 3.34687 6.5625 5.15625 6.5625ZM5.15625 4.6875C2.30625 4.6875 0 6.99375 0 9.84375C0 12.6938 2.30625 15 5.15625 15C8.00625 15 10.3125 12.6938 10.3125 9.84375C10.3125 8.75625 9.975 7.75313 9.40312 6.91875L13.125 3.20625V5.625H15V0H9.375V1.875H11.7937L8.07187 5.59688C7.24687 5.025 6.24375 4.6875 5.15625 4.6875Z" fill="currentColor"/>
</svg>
