<svg width="16" height="21" viewBox="0 0 16 21" fill="none" xmlns="http://www.w3.org/2000/svg">
<path d="M13.38 0.445312H2.5C1.83753 0.44716 1.20271 0.711145 0.734273 1.17959C0.265832 1.64803 0.00184718 2.28284 0 2.94531V17.8153C0.00184718 18.4778 0.265832 19.1126 0.734273 19.581C1.20271 20.0495 1.83753 20.3135 2.5 20.3153H13.38C14.043 20.3153 14.6789 20.0519 15.1478 19.5831C15.6166 19.1142 15.88 18.4784 15.88 17.8153V2.94531C15.88 2.28227 15.6166 1.64639 15.1478 1.17755C14.6789 0.708705 14.043 0.445312 13.38 0.445312ZM14.88 17.8153C14.88 18.2131 14.722 18.5947 14.4407 18.876C14.1594 19.1573 13.7778 19.3153 13.38 19.3153H2.5C2.10218 19.3153 1.72064 19.1573 1.43934 18.876C1.15804 18.5947 1 18.2131 1 17.8153V4.88531H14.88V17.8153Z" fill="#303030" fill-opacity="0.5"/>
<path d="M3.5 7.88623C3.36739 7.88623 3.24021 7.83355 3.14645 7.73978C3.05268 7.64602 3 7.51884 3 7.38623C3 7.25362 3.05268 7.12645 3.14645 7.03268C3.24021 6.93891 3.36739 6.88623 3.5 6.88623H12.409C12.5416 6.88623 12.6688 6.93891 12.7626 7.03268C12.8563 7.12645 12.909 7.25362 12.909 7.38623C12.909 7.51884 12.8563 7.64602 12.7626 7.73978C12.6688 7.83355 12.5416 7.88623 12.409 7.88623H3.5ZM3.5 10.8862C3.36739 10.8862 3.24021 10.8336 3.14645 10.7398C3.05268 10.646 3 10.5188 3 10.3862C3 10.2536 3.05268 10.1264 3.14645 10.0327C3.24021 9.93891 3.36739 9.88623 3.5 9.88623H10C10.1326 9.88623 10.2598 9.93891 10.3536 10.0327C10.4473 10.1264 10.5 10.2536 10.5 10.3862C10.5 10.5188 10.4473 10.646 10.3536 10.7398C10.2598 10.8336 10.1326 10.8862 10 10.8862H3.5ZM3.517 16.7542C3.38439 16.7542 3.25722 16.7016 3.16345 16.6078C3.06968 16.514 3.017 16.3868 3.017 16.2542C3.017 16.1216 3.06968 15.9944 3.16345 15.9007C3.25722 15.8069 3.38439 15.7542 3.517 15.7542H6.768C6.90061 15.7542 7.02779 15.8069 7.12155 15.9007C7.21532 15.9944 7.268 16.1216 7.268 16.2542C7.268 16.3868 7.21532 16.514 7.12155 16.6078C7.02779 16.7016 6.90061 16.7542 6.768 16.7542H3.517Z" fill="#303030" fill-opacity="0.5"/>
</svg>
