<svg viewBox="0 0 24 23" fill="currentColor" xmlns="http://www.w3.org/2000/svg">
<path d="M12.025 17.616C11.1557 17.616 10.328 17.4507 9.542 17.12C8.756 16.7893 8.05534 16.316 7.44 15.7C6.82467 15.084 6.35167 14.3837 6.021 13.599C5.69034 12.8123 5.525 11.9847 5.525 11.116C5.525 10.4453 5.625 9.793 5.825 9.159C6.025 8.525 6.31667 7.93633 6.7 7.393C6.85267 7.18567 7.06167 7.10667 7.327 7.156C7.59234 7.20533 7.779 7.358 7.887 7.614C8.24967 8.47933 8.687 9.29167 9.199 10.051C9.711 10.8103 10.2977 11.5203 10.959 12.181C11.6203 12.8417 12.331 13.4287 13.091 13.942C13.851 14.4553 14.663 14.893 15.527 15.255C15.7837 15.3623 15.9367 15.5487 15.986 15.814C16.0353 16.0793 15.956 16.2883 15.748 16.441C15.2047 16.8243 14.616 17.116 13.982 17.316C13.348 17.516 12.6957 17.616 12.025 17.616ZM17.542 13.45C17.404 13.4053 17.3053 13.318 17.246 13.188C17.1873 13.058 17.1767 12.9217 17.214 12.779C17.5307 11.7997 17.5767 10.8167 17.352 9.83C17.1273 8.84333 16.6403 7.97533 15.891 7.226C15.1663 6.502 14.3063 6.019 13.311 5.777C12.3157 5.535 11.3363 5.56433 10.373 5.865C10.2437 5.90233 10.115 5.89133 9.987 5.832C9.85834 5.77333 9.76967 5.681 9.721 5.555C9.67234 5.42967 9.67867 5.30633 9.74 5.185C9.8 5.06233 9.89334 4.98067 10.02 4.94C11.1693 4.562 12.3383 4.50967 13.527 4.783C14.7157 5.057 15.7497 5.63367 16.629 6.513C17.5043 7.389 18.0767 8.418 18.346 9.6C18.6153 10.782 18.5673 11.948 18.202 13.098C18.1613 13.24 18.0767 13.3457 17.948 13.415C17.82 13.4843 17.6847 13.4963 17.542 13.451M12 2.386C11.858 2.386 11.739 2.33833 11.643 2.243C11.547 2.14767 11.4993 2.02867 11.5 1.886V0.501C11.5 0.358333 11.5477 0.239333 11.643 0.144C11.7383 0.048 11.8573 0 12 0C12.1427 0 12.2617 0.048 12.357 0.144C12.4523 0.24 12.5 0.359 12.5 0.501V1.885C12.5 2.02767 12.4523 2.14667 12.357 2.242C12.2617 2.33733 12.1427 2.386 12 2.386ZM12 22.232C11.858 22.232 11.739 22.184 11.643 22.088C11.5477 21.9927 11.5 21.8737 11.5 21.731V20.347C11.5 20.2043 11.5477 20.0853 11.643 19.99C11.7383 19.8947 11.8573 19.847 12 19.847C12.1427 19.847 12.2617 19.8947 12.357 19.99C12.4523 20.0853 12.5 20.2043 12.5 20.347V21.731C12.5 21.8737 12.4523 21.9927 12.357 22.088C12.2617 22.184 12.1427 22.232 12 22.232ZM18.183 4.939C18.0723 4.829 18.017 4.71 18.017 4.582C18.017 4.454 18.0723 4.33533 18.183 4.226L19.113 3.295C19.2063 3.20167 19.3203 3.15167 19.455 3.145C19.5883 3.13833 19.7103 3.18833 19.821 3.295C19.931 3.405 19.986 3.524 19.986 3.652C19.986 3.78 19.931 3.89867 19.821 4.008L18.891 4.939C18.793 5.03633 18.678 5.08833 18.546 5.095C18.414 5.10167 18.293 5.04967 18.183 4.939ZM4.179 18.937C4.069 18.827 4.014 18.7083 4.014 18.581C4.014 18.453 4.069 18.334 4.179 18.224L5.109 17.293C5.207 17.1957 5.322 17.1437 5.454 17.137C5.586 17.1303 5.707 17.1823 5.817 17.293C5.927 17.4037 5.98234 17.5227 5.983 17.65C5.98367 17.7773 5.92834 17.8963 5.817 18.007L4.887 18.937C4.79367 19.0303 4.67967 19.0803 4.545 19.087C4.41167 19.0937 4.28967 19.0437 4.179 18.937ZM21.23 11.616C21.0873 11.616 20.9683 11.5683 20.873 11.473C20.7777 11.3777 20.7303 11.2587 20.731 11.116C20.7317 10.9733 20.7793 10.8543 20.874 10.759C20.9687 10.6637 21.0877 10.616 21.231 10.616H22.615C22.7577 10.616 22.8767 10.6637 22.972 10.759C23.068 10.8543 23.116 10.9733 23.116 11.116C23.116 11.2587 23.068 11.3777 22.972 11.473C22.876 11.5683 22.757 11.616 22.615 11.616H21.23ZM1.383 11.616C1.241 11.616 1.12234 11.5683 1.027 11.473C0.931669 11.3777 0.884003 11.2587 0.884003 11.116C0.884003 10.9733 0.932003 10.8543 1.028 10.759C1.124 10.6637 1.243 10.616 1.385 10.616H2.769C2.91167 10.616 3.03067 10.6637 3.126 10.759C3.22134 10.8543 3.269 10.9733 3.269 11.116C3.269 11.2587 3.22134 11.3777 3.126 11.473C3.03067 11.5683 2.91167 11.616 2.769 11.616H1.383ZM19.82 18.937C19.71 19.047 19.591 19.102 19.463 19.102C19.335 19.102 19.2163 19.047 19.107 18.937L18.176 18.007C18.0787 17.909 18.0267 17.794 18.02 17.662C18.0133 17.53 18.0653 17.409 18.176 17.299C18.2867 17.189 18.4057 17.1337 18.533 17.133C18.6603 17.1323 18.779 17.1877 18.889 17.299L19.82 18.229C19.9133 18.3223 19.9633 18.4363 19.97 18.571C19.9767 18.7043 19.9267 18.8263 19.82 18.937ZM5.823 4.933C5.713 5.04367 5.594 5.099 5.466 5.099C5.338 5.099 5.21934 5.04367 5.11 4.933L4.179 4.003C4.08567 3.90967 4.03567 3.79567 4.029 3.661C4.02234 3.52767 4.07234 3.40567 4.179 3.295C4.289 3.185 4.408 3.13 4.536 3.13C4.664 3.13 4.78267 3.185 4.892 3.295L5.823 4.225C5.92034 4.323 5.97234 4.438 5.979 4.57C5.98567 4.702 5.93367 4.823 5.823 4.933Z" fill="currentColor" />
</svg>
