<svg viewBox="0 0 12 14" fill="none" xmlns="http://www.w3.org/2000/svg">
<path fill-rule="evenodd" clip-rule="evenodd" d="M1.5 0C1.10218 0 0.720644 0.1475 0.43934 0.41005C0.158035 0.672601 0 1.0287 0 1.4V12.6C0 12.9713 0.158035 13.3274 0.43934 13.5899C0.720644 13.8525 1.10218 14 1.5 14H10.5C10.8978 14 11.2794 13.8525 11.5607 13.5899C11.842 13.3274 12 12.9713 12 12.6V3.0898C11.9999 2.71853 11.8418 2.36249 11.5605 2.1L9.75 0.4102C9.46876 0.147631 9.08729 7.92924e-05 8.6895 0H1.5ZM1.5 1.4H8.6895L10.5 3.0898V12.6H1.5V1.4ZM9.1785 6.1551C9.25013 6.09053 9.30727 6.01329 9.34658 5.92788C9.38588 5.84248 9.40657 5.75063 9.40744 5.65768C9.4083 5.56474 9.38933 5.47256 9.35162 5.38653C9.31391 5.30051 9.25822 5.22235 9.1878 5.15662C9.11738 5.0909 9.03364 5.03892 8.94147 5.00372C8.84929 4.96853 8.75053 4.95082 8.65095 4.95162C8.55136 4.95243 8.45295 4.97174 8.36145 5.00843C8.26994 5.04512 8.18719 5.09844 8.118 5.1653L4.9365 8.1354L3.87525 7.1449C3.7338 7.01739 3.54435 6.94683 3.3477 6.94843C3.15105 6.95002 2.96294 7.02364 2.82389 7.15343C2.68483 7.28321 2.60595 7.45878 2.60424 7.64232C2.60254 7.82586 2.67813 8.00268 2.81475 8.1347L4.35225 9.5704C4.42886 9.64194 4.51983 9.69869 4.61995 9.73741C4.72007 9.77613 4.82738 9.79606 4.93575 9.79606C5.04412 9.79606 5.15143 9.77613 5.25155 9.73741C5.35167 9.69869 5.44264 9.64194 5.51925 9.5704L9.1785 6.1551Z" fill="currentColor"/>
</svg>
