<svg width="21" height="23" viewBox="0 0 21 23" fill="none" xmlns="http://www.w3.org/2000/svg">
<path d="M18.75 10.9684V4.8584C18.75 4.32797 18.5393 3.81926 18.1642 3.44418C17.7891 3.06911 17.2804 2.8584 16.75 2.8584H12.57C12.15 1.6984 11.05 0.858398 9.75 0.858398C8.45 0.858398 7.35 1.6984 6.93 2.8584H2.75C1.65 2.8584 0.75 3.7584 0.75 4.8584V18.8584C0.75 19.3888 0.960714 19.8975 1.33579 20.2726C1.71086 20.6477 2.21957 20.8584 2.75 20.8584H8.86C10.12 22.0984 11.84 22.8584 13.75 22.8584C17.62 22.8584 20.75 19.7284 20.75 15.8584C20.75 13.9484 19.99 12.2284 18.75 10.9684ZM9.75 2.8584C10.3 2.8584 10.75 3.3084 10.75 3.8584C10.75 4.4084 10.3 4.8584 9.75 4.8584C9.2 4.8584 8.75 4.4084 8.75 3.8584C8.75 3.3084 9.2 2.8584 9.75 2.8584ZM3.75 6.8584H15.75V8.8584H3.75V6.8584ZM6.83 16.8584H3.75V14.8584H6.83C6.78 15.1884 6.75 15.5184 6.75 15.8584C6.75 16.1984 6.78 16.5284 6.83 16.8584ZM3.75 12.8584V10.8584H8.86C8.25 11.4284 7.79 12.1084 7.43 12.8584H3.75ZM13.75 20.8584C10.99 20.8584 8.75 18.6184 8.75 15.8584C8.75 13.0984 10.99 10.8584 13.75 10.8584C16.51 10.8584 18.75 13.0984 18.75 15.8584C18.75 18.6184 16.51 20.8584 13.75 20.8584ZM14.25 16.1084L17.11 17.7984L16.36 19.0184L12.75 16.8584V11.8584H14.25V16.1084Z" fill="#303030" fill-opacity="0.5"/>
</svg>
