<svg  viewBox="0 0 14 14" fill="currentColor" xmlns="http://www.w3.org/2000/svg">
<path fill-rule="evenodd" clip-rule="evenodd" d="M8.1904 1.3252C8.2426 1.4266 8.2558 1.5568 8.2816 1.8172C8.3308 2.3092 8.3554 2.5552 8.4586 2.6908C8.5229 2.77499 8.60834 2.84066 8.70625 2.88113C8.80415 2.9216 8.91102 2.93542 9.016 2.9212C9.184 2.899 9.376 2.7424 9.7588 2.4292C9.961 2.263 10.0624 2.1802 10.171 2.1454C10.3093 2.1012 10.459 2.10866 10.5922 2.1664C10.6972 2.212 10.7902 2.3044 10.9744 2.4892L11.5108 3.0256C11.6956 3.2104 11.788 3.3028 11.8336 3.4078C11.8913 3.54103 11.8988 3.69068 11.8546 3.829C11.8198 3.9376 11.737 4.039 11.5714 4.2412C11.2576 4.6246 11.101 4.816 11.0782 4.9846C11.0642 5.08954 11.0781 5.19632 11.1187 5.29412C11.1593 5.39191 11.225 5.47722 11.3092 5.5414C11.4442 5.6446 11.6908 5.6692 12.1834 5.7184C12.4432 5.7442 12.5734 5.7574 12.6754 5.8096C12.8041 5.87632 12.9042 5.98736 12.9574 6.1222C13 6.2284 13 6.3592 13 6.6208V7.3792C13 7.6408 13 7.7716 12.958 7.8772C12.9047 8.01247 12.804 8.12376 12.6748 8.1904C12.5734 8.2426 12.4432 8.2558 12.1828 8.2816C11.6908 8.3308 11.4448 8.3554 11.3092 8.4586C11.225 8.5229 11.1593 8.60834 11.1189 8.70625C11.0784 8.80415 11.0646 8.91102 11.0788 9.016C11.1016 9.184 11.2582 9.376 11.5714 9.7588C11.737 9.961 11.8198 10.0618 11.8546 10.171C11.8988 10.3093 11.8913 10.459 11.8336 10.5922C11.788 10.6972 11.6956 10.7896 11.5108 10.9744L10.9744 11.5102C10.7896 11.6956 10.6972 11.788 10.5922 11.833C10.459 11.8907 10.3093 11.8982 10.171 11.854C10.0624 11.8192 9.961 11.7364 9.7588 11.5708C9.3754 11.2576 9.184 11.101 9.016 11.0788C8.91102 11.0646 8.80415 11.0784 8.70625 11.1189C8.60834 11.1593 8.5229 11.225 8.4586 11.3092C8.3554 11.4442 8.3308 11.6902 8.2816 12.1828C8.2558 12.4432 8.2426 12.5734 8.1904 12.6748C8.12391 12.8039 8.01284 12.9045 7.8778 12.958C7.7716 13 7.6408 13 7.3792 13H6.6208C6.3592 13 6.2284 13 6.1228 12.958C5.98753 12.9047 5.87624 12.804 5.8096 12.6748C5.7574 12.5734 5.7442 12.4432 5.7184 12.1828C5.6692 11.6908 5.6446 11.4448 5.5414 11.3092C5.47715 11.2251 5.39181 11.1595 5.29402 11.119C5.19623 11.0786 5.08948 11.0647 4.9846 11.0788C4.816 11.101 4.6246 11.2576 4.2412 11.5708C4.039 11.737 3.9376 11.8198 3.829 11.8546C3.69068 11.8988 3.54103 11.8913 3.4078 11.8336C3.3028 11.788 3.2098 11.6956 3.0256 11.5108L2.4892 10.9744C2.3044 10.7896 2.212 10.6972 2.1664 10.5922C2.10866 10.459 2.1012 10.3093 2.1454 10.171C2.1802 10.0624 2.263 9.961 2.4286 9.7588C2.7424 9.3754 2.899 9.184 2.9212 9.0154C2.93531 8.91052 2.92143 8.80377 2.88097 8.70598C2.8405 8.60819 2.7749 8.52285 2.6908 8.4586C2.5558 8.3554 2.3092 8.3308 1.8166 8.2816C1.5568 8.2558 1.4266 8.2426 1.3246 8.1904C1.19593 8.12368 1.09576 8.01264 1.0426 7.8778C1 7.7716 1 7.6408 1 7.3792V6.6208C1 6.3592 1 6.2284 1.042 6.1228C1.09533 5.98753 1.19597 5.87624 1.3252 5.8096C1.4266 5.7574 1.5568 5.7442 1.8172 5.7184C2.3092 5.6692 2.5558 5.6446 2.6908 5.5414C2.77501 5.47722 2.84073 5.39191 2.8813 5.29412C2.92187 5.19632 2.93585 5.08954 2.9218 4.9846C2.899 4.816 2.7418 4.6246 2.4286 4.2406C2.263 4.0384 2.1802 3.9376 2.1454 3.8284C2.1012 3.69008 2.10866 3.54043 2.1664 3.4072C2.212 3.3028 2.3044 3.2098 2.4892 3.025L3.0256 2.4892C3.2104 2.3044 3.3028 2.2114 3.4078 2.1664C3.54103 2.10866 3.69068 2.1012 3.829 2.1454C3.9376 2.1802 4.039 2.263 4.2412 2.4286C4.6246 2.7418 4.816 2.8984 4.984 2.9212C5.08913 2.93547 5.19616 2.9216 5.29418 2.88102C5.39221 2.84044 5.47772 2.7746 5.542 2.6902C5.644 2.5552 5.6692 2.3092 5.7184 1.8166C5.7442 1.5568 5.7574 1.4266 5.8096 1.3246C5.8762 1.1957 5.98726 1.09531 6.1222 1.042C6.2284 1 6.3592 1 6.6208 1H7.3792C7.6408 1 7.7716 1 7.8772 1.042C8.01247 1.09533 8.12376 1.19597 8.1904 1.3252ZM7 9.4C7.63652 9.4 8.24697 9.14714 8.69706 8.69706C9.14714 8.24697 9.4 7.63652 9.4 7C9.4 6.36348 9.14714 5.75303 8.69706 5.30294C8.24697 4.85286 7.63652 4.6 7 4.6C6.36348 4.6 5.75303 4.85286 5.30294 5.30294C4.85286 5.75303 4.6 6.36348 4.6 7C4.6 7.63652 4.85286 8.24697 5.30294 8.69706C5.75303 9.14714 6.36348 9.4 7 9.4Z" stroke="currentColor"/>
</svg>
