<svg width="14" height="14" viewBox="0 0 14 14" fill="currentColor" xmlns="http://www.w3.org/2000/svg">
<path d="M2.15343 0C0.969042 0 0 0.969231 0 2.15385V11.8462C0 13.0308 0.969042 14 2.15343 14H8.5631L7.48639 12.9231H2.15343C1.56123 12.9231 1.07671 12.4385 1.07671 11.8462V2.15385C1.07671 1.56154 1.56123 1.07692 2.15343 1.07692H6.09043C6.46728 1.18462 6.46028 1.66923 6.46028 2.15385V3.76923C6.46028 4.09231 6.67562 4.30769 6.99864 4.30769H8.61371C9.15206 4.30769 9.69042 4.30769 9.69042 4.84615V10.1301L9.79163 10.2308L10.7671 8.78339V4.30769C10.7671 3.71538 10.2352 3.17046 9.32003 2.25454C9.15852 2.14685 9.04439 1.99231 8.88288 1.88462C8.77521 1.72308 8.62017 1.60838 8.5125 1.44685C7.59783 0.532 7.05247 0 6.46028 0H2.15343ZM12.9879 7.53846C12.8917 7.56487 12.8082 7.62461 12.7521 7.707L9.90953 11.8962L8.61371 10.5501C8.4522 10.3885 8.23363 10.3885 8.12596 10.5501L7.6382 11.0385C7.4767 11.2 7.4767 11.4186 7.6382 11.5263L9.63981 13.5122C9.74749 13.6198 9.8993 13.7308 10.0608 13.7308C10.2223 13.7308 10.3903 13.6231 10.498 13.4615L13.9467 8.39677C14.0543 8.34292 13.9908 8.08338 13.8293 7.97623L13.2403 7.58854C13.2042 7.56272 13.163 7.5449 13.1195 7.53627C13.076 7.52763 13.0311 7.52838 12.9879 7.53846Z" fill="currentColor"/>
</svg>
